<svg id="SvgjsSvg1044" width="288" height="288" xmlns="http://www.w3.org/2000/svg" version="1.1" xmlns:xlink="http://www.w3.org/1999/xlink" xmlns:svgjs="http://svgjs.com/svgjs"><defs id="SvgjsDefs1045"></defs><g id="SvgjsG1046" transform="matrix(0.9167,0,0,0.9167,11.995200000000011,11.995200000000011)"><svg xmlns="http://www.w3.org/2000/svg" width="288" height="288" viewBox="0 0 25 25"><path style="text-indent:0;text-align:start;line-height:normal;text-transform:none;block-progression:tb;marker:none;-inkscape-font-specification:Sans" d="M 12.5 0 C 5.6021324 0 0 5.6022 0 12.5 C 0 19.3979 5.602137 25 12.5 25 C 19.397863 25 25 19.3979 25 12.5 C 25 5.6022 19.397867 0 12.5 0 z M 12.5 0.96875 C 18.878208 0.96875 24.03125 6.1219 24.03125 12.5 C 24.03125 18.8783 18.878213 24.0625 12.5 24.0625 C 6.1217872 24.0625 0.9375 18.8783 0.9375 12.5 C 0.9375 6.1219 6.1217918 0.96875 12.5 0.96875 z M 9 7 L 9 8 L 8 8 L 8 9 L 9 9 L 9 10 L 10 10 L 10 9 L 11 9 L 11 8 L 10 8 L 10 7 L 9 7 z M 13 10 L 12.78125 10.125 L 7.875 12.5625 L 13 15.125 L 18.125 12.5625 L 13 10 z M 13 11.125 L 15.875 12.5625 L 13 14 L 10.125 12.5625 L 13 11.125 z M 10 14.53125 L 7.875 15.5 L 13 18.0625 L 18.125 15.5 L 16.03125 14.53125 L 14.90625 15.09375 L 15.875 15.5 L 13 16.9375 L 10.125 15.5 L 11.09375 15.09375 L 10 14.53125 z " color="#000" font-family="Sans" font-weight="400" overflow="visible" fill="#ffffff" class="color000 svgShape"></path></svg></g></svg>