<svg id="SvgjsSvg1033" width="288" height="288" xmlns="http://www.w3.org/2000/svg" version="1.1" xmlns:xlink="http://www.w3.org/1999/xlink" xmlns:svgjs="http://svgjs.com/svgjs"><defs id="SvgjsDefs1034"></defs><g id="SvgjsG1035" transform="matrix(0.9167,0,0,0.9167,11.995199364471432,11.995199364471432)"><svg xmlns="http://www.w3.org/2000/svg" data-name="Layer 1" viewBox="0 0 70 70" width="288" height="288"><path d="M35,3A32,32,0,1,0,67,35,32,32,0,0,0,35,3ZM59.17,17.24l-14.39,10a12.39,12.39,0,0,0-2-2l9.93-14.41A30.3,30.3,0,0,1,59.17,17.24ZM43.72,40.85A10.52,10.52,0,1,1,45.3,33,10.52,10.52,0,0,1,43.72,40.85ZM5,35A30,30,0,0,1,51,9.65L41.09,24.08A12.51,12.51,0,0,0,24.62,28a12.52,12.52,0,0,0-.56,13.05l-14.4,10A29.85,29.85,0,0,1,5,35Zm5.79,17.7,14.38-10a12.2,12.2,0,0,0,2,2L17.23,59.15A30.3,30.3,0,0,1,10.79,52.7ZM35,65a29.88,29.88,0,0,1-16.13-4.71l9.94-14.42A12.55,12.55,0,0,0,45.38,42a12.39,12.39,0,0,0,1.88-9.38,12.63,12.63,0,0,0-1.36-3.73l14.4-10A30,30,0,0,1,35,65Z" fill="#ffffff" class="color000 svgShape"></path><path d="M35,29.24A5.75,5.75,0,1,0,40.71,35,5.75,5.75,0,0,0,35,29.24Zm0,9.49A3.75,3.75,0,1,1,38.71,35,3.75,3.75,0,0,1,35,38.73Z" fill="#ffffff" class="color000 svgShape"></path></svg></g></svg>