<svg id="SvgjsSvg1054" width="288" height="288" xmlns="http://www.w3.org/2000/svg" version="1.1" xmlns:xlink="http://www.w3.org/1999/xlink" xmlns:svgjs="http://svgjs.com/svgjs"><defs id="SvgjsDefs1055"></defs><g id="SvgjsG1056" transform="matrix(0.9167,0,0,0.9167,11.995200000000011,11.995200000000011)"><svg xmlns="http://www.w3.org/2000/svg" width="288" height="288" viewBox="0 0 25 25"><path style="text-indent:0;text-align:start;line-height:normal;text-transform:none;block-progression:tb;marker:none;-inkscape-font-specification:Sans" d="M 12.5 0 C 5.6021371 0 0 5.6021 0 12.5 C 0 19.3978 5.6021324 25 12.5 25 C 19.397868 25 25 19.3978 25 12.5 C 25 5.6021 19.397863 0 12.5 0 z M 12.5 0.96875 C 18.878213 0.96875 24.03125 6.1217 24.03125 12.5 C 24.03125 18.8781 18.878208 24.0625 12.5 24.0625 C 6.1217919 24.0625 0.96875 18.8781 0.96875 12.5 C 0.96875 6.1217 6.1217872 0.96875 12.5 0.96875 z M 19.375 5.65625 L 15.125 7.0625 L 8.65625 13.53125 L 7.3125 14.84375 C 6.8871611 15.26915 6.8871611 15.98085 7.3125 16.40625 L 8.59375 17.6875 C 8.806445 17.9002 9.091869 18 9.375 18 C 9.658131 18 9.943555 17.9002 10.15625 17.6875 L 11.46875 16.34375 L 11.5 16.34375 L 17.9375 9.90625 L 19.375 5.65625 z M 17.78125 7.25 L 17.1875 9.03125 L 16 7.84375 L 17.78125 7.25 z M 15.1875 8.4375 L 16.59375 9.84375 L 11.125 15.28125 L 9.71875 13.875 L 15.1875 8.4375 z M 9 14.59375 L 10.4375 16 L 9.4375 16.96875 C 9.39158 17.01475 9.3584222 17.01475 9.3125 16.96875 L 8.03125 15.6875 C 7.98528 15.6415 7.98528 15.608 8.03125 15.5625 L 9 14.59375 z " color="#000" font-family="Sans" font-weight="400" overflow="visible" fill="#ffffff" class="color000 svgShape"></path></svg></g></svg>