<svg id="SvgjsSvg1013" width="288" height="288" xmlns="http://www.w3.org/2000/svg" version="1.1" xmlns:xlink="http://www.w3.org/1999/xlink" xmlns:svgjs="http://svgjs.com/svgjs"><defs id="SvgjsDefs1014"></defs><g id="SvgjsG1015" transform="matrix(0.9167,0,0,0.9167,11.995200000000011,11.995200000000011)"><svg xmlns="http://www.w3.org/2000/svg" width="288" height="288" viewBox="0 0 16 16"><path d="m 8,2 c 3.319631,0 6,2.6804 6,6 0,3.3197 -2.680369,6 -6,6 C 4.6803692,14 2,11.3197 2,8 2,4.6804 4.6803692,2 8,2 z M 5.5253906,4.8183594 4.8183594,5.5253906 7.2929688,8 4.8183594,10.476562 5.5253906,11.183594 8,8.7070312 10.476562,11.183594 11.183594,10.476562 8.7070312,8 11.183594,5.5253906 10.476562,4.8183594 8,7.2929688 z" color="#000" font-family="sans-serif" font-weight="400" overflow="visible" style="text-indent:0;text-align:start;line-height:normal;text-transform:none;block-progression:tb" fill="#ffffff" class="color000 svgShape"></path></svg></g></svg>