<svg id="SvgjsSvg1049" width="288" height="288" xmlns="http://www.w3.org/2000/svg" version="1.1" xmlns:xlink="http://www.w3.org/1999/xlink" xmlns:svgjs="http://svgjs.com/svgjs"><defs id="SvgjsDefs1050"></defs><g id="SvgjsG1051" transform="matrix(0.9167,0,0,0.9167,11.995200000000011,11.995200000000011)"><svg xmlns="http://www.w3.org/2000/svg" width="288" height="288" viewBox="0 0 25 25"><path style="text-indent:0;text-align:start;line-height:normal;text-transform:none;block-progression:tb;marker:none;-inkscape-font-specification:Sans" d="M 12.5 0 C 5.602137 0 0 5.6021 0 12.5 C 0 19.3978 5.602137 25 12.5 25 C 19.397864 25 25 19.3978 25 12.5 C 25 5.6021 19.397864 0 12.5 0 z M 12.5 0.96875 C 18.878214 0.96875 24.03125 6.1217 24.03125 12.5 C 24.03125 18.8782 18.878214 24.0625 12.5 24.0625 C 6.1217872 24.0625 0.96875 18.8782 0.96875 12.5 C 0.96875 6.1217 6.1217872 0.96875 12.5 0.96875 z M 11 7 C 10.451543 7 10 7.4515 10 8 L 10 9 L 7 9 L 7 10 L 8 10 L 8 17 C 8 17.5454 8.4546484 18 9 18 L 16 18 C 16.545352 18 17 17.5454 17 17 L 17 10 L 18 10 L 18 9 L 15 9 L 15 8 C 15 7.4515 14.548458 7 14 7 L 11 7 z M 11 8 L 14 8 L 14 9 L 11 9 L 11 8 z M 9 10 L 16 10 L 16 17 L 15 17 L 15 11 L 14 11 L 14 17 L 13 17 L 13 11 L 12 11 L 12 17 L 11 17 L 11 11 L 10 11 L 10 17 L 9 17 L 9 10 z " color="#000" font-family="Sans" font-weight="400" overflow="visible" fill="#ffffff" class="color000 svgShape"></path></svg></g></svg>