<svg id="SvgjsSvg1028" width="288" height="288" xmlns="http://www.w3.org/2000/svg" version="1.1" xmlns:xlink="http://www.w3.org/1999/xlink" xmlns:svgjs="http://svgjs.com/svgjs"><defs id="SvgjsDefs1029"></defs><g id="SvgjsG1030" transform="matrix(0.9167,0,0,0.9167,11.99519999934958,11.995200000000011)"><svg xmlns="http://www.w3.org/2000/svg" width="288" height="288" viewBox="0 0 26 26"><path style="line-height:normal;text-indent:0;text-align:start;text-decoration-line:none;text-decoration-style:solid;text-decoration-color:#000;text-transform:none;block-progression:tb;isolation:auto;mix-blend-mode:normal" d="M 13 0 C 5.82629 0 9.8e-005 5.8263 0 13 C -7.4e-005 20.1739 5.826169 26 13 26 C 20.173831 26 26.000074 20.1739 26 13 C 25.999902 5.8263 20.17371 0 13 0 z M 13 1.0019531 C 19.633243 1.0019531 24.999909 6.3668 25 13 C 25.000068 19.6334 19.633355 25 13 25 C 6.366645 25 0.999932 19.6334 1 13 C 1.000091 6.3668 6.366757 1.0019531 13 1.0019531 z M 19.992188 5.0058594 L 9.9921875 8.6445312 L 9.9921875 16.509766 C 9.5724425 16.190966 9.0567431 15.994141 8.4921875 15.994141 C 7.1173979 15.994141 5.9921875 17.119341 5.9921875 18.494141 C 5.9921875 19.868941 7.1173979 20.994141 8.4921875 20.994141 C 9.830171 20.994141 10.922444 19.925962 10.980469 18.601562 L 10.992188 18.601562 L 10.992188 18.494141 L 10.992188 11.826172 L 18.992188 8.96875 L 18.992188 13.498047 C 18.575301 13.186747 18.06496 12.994141 17.507812 12.994141 C 16.133022 12.994141 15.007813 14.119341 15.007812 15.494141 C 15.007812 16.868941 16.133022 17.994141 17.507812 17.994141 C 18.882603 17.994141 20.007812 16.868941 20.007812 15.494141 C 20.007812 15.416141 19.991455 15.341825 19.984375 15.265625 L 19.992188 15.265625 L 19.992188 5.0058594 z M 18.992188 6.4316406 L 18.992188 7.90625 L 10.992188 10.763672 L 10.992188 9.34375 L 18.992188 6.4316406 z M 17.507812 13.994141 C 18.342161 13.994141 19.007812 14.659841 19.007812 15.494141 C 19.007812 16.328541 18.342161 16.994141 17.507812 16.994141 C 16.673464 16.994141 16.007812 16.328541 16.007812 15.494141 C 16.007812 14.659841 16.673464 13.994141 17.507812 13.994141 z M 8.4921875 16.994141 C 9.3265369 16.994141 9.9921875 17.659841 9.9921875 18.494141 C 9.9921875 19.328541 9.3265369 19.994141 8.4921875 19.994141 C 7.6578381 19.994141 6.9921875 19.328541 6.9921875 18.494141 C 6.9921875 17.659841 7.6578381 16.994141 8.4921875 16.994141 z " color="#000" font-family="sans-serif" font-weight="400" overflow="visible" fill="#ffffff" class="color000 svgShape"></path></svg></g></svg>